<svg width="19" height="19" viewBox="0 0 20 20" fill="none" xmlns="http://www.w3.org/2000/svg"> <path d="M14.1667 17.5C14.3877 17.5 14.5996 17.4122 14.7559 17.2559C14.9122 17.0996 15 16.8877 15 16.6667V12.2083C15 11.8275 15.2633 11.505 15.6058 11.3408C16.315 11.0025 16.8818 10.4246 17.2064 9.70907C17.5309 8.99351 17.5922 8.18633 17.3795 7.42996C17.1668 6.67359 16.6938 6.01666 16.0439 5.57511C15.394 5.13357 14.609 4.93578 13.8275 5.01666C13.5056 4.2685 12.9716 3.63107 12.2913 3.18319C11.6111 2.73531 10.8145 2.49661 10 2.49661C9.18555 2.49661 8.38895 2.73531 7.7087 3.18319C7.02845 3.63107 6.49437 4.2685 6.17251 5.01666C5.39133 4.93634 4.60687 5.13441 3.95745 5.57594C3.30803 6.01747 2.83535 6.67411 2.62275 7.43008C2.41014 8.18605 2.47127 8.99281 2.79534 9.70812C3.11942 10.4234 3.68564 11.0014 4.39417 11.34C4.73667 11.505 5.00001 11.8275 5.00001 12.2075V16.6667C5.00001 16.8877 5.0878 17.0996 5.24409 17.2559C5.40037 17.4122 5.61233 17.5 5.83334 17.5H14.1667Z" stroke="currentColor" stroke-width="1.2" stroke-linecap="round" stroke-linejoin="round"></path> <path d="M5 14.1667H15" stroke="currentColor" stroke-width="1.2" stroke-linecap="round" stroke-linejoin="round"></path> </svg>