<svg class="svg-icon" width="25" height="24" viewBox="0 0 25 24" version="1.1" xmlns="http://www.w3.org/2000/svg"><g stroke="none" stroke-width="1" fill="currentColor" fill-rule="evenodd"><path d="M8 15.03v-2.052a5.498 5.498 0 0 0 5-5.475V3.006a1 1 0 0 0-1-1H3a1 1 0 0 0-1 1v4.497a5.498 5.498 0 0 0 5 5.475v2.052a7.5 7.5 0 0 1-7-7.484V2a2 2 0 0 1 2-2h11a2 2 0 0 1 2 2v5.546a7.5 7.5 0 0 1-7 7.484z"></path><path d="M5 13h2v6H5zm3 0h2v6H8z"></path><path d="M5 16h2v4a4 4 0 0 1-4 4H2v-2a3 3 0 0 0 3-3v-3zM23 0h2v8a4 4 0 0 1-4 4h-1v-2a3 3 0 0 0 3-3V0z"></path><path d="M20 0h2v7h-2zm0 11h2v13h-2zM17 0h2v7h-2zm-7 16H8v4a4 4 0 0 0 4 4h1v-2a3 3 0 0 1-3-3v-3z"></path></g></svg>