<?xml version="1.0" encoding="UTF-8" standalone="no"?><svg version="1.1" id="svg2838" xml:space="preserve" width="24" height="24" viewBox="0 0 682.66669 682.66669" xmlns="http://www.w3.org/2000/svg" xmlns:svg="http://www.w3.org/2000/svg"><defs id="defs2842"><clipPath clipPathUnits="userSpaceOnUse" id="clipPath2852"><path d="M 0,512 H 512 V 0 H 0 Z" id="path2850" /></clipPath></defs><g id="g2844" transform="matrix(1.3333333,0,0,-1.3333333,0,682.66667)"><g id="g2846"><g id="g2848" clip-path="url(#clipPath2852)"><g id="g2854" transform="translate(257,474.1592)"><path d="M 0,0 H -29.707 C -50.061,0 -67.536,-12.306 -75.114,-29.88 H -242" style="fill:none;stroke:#000000;stroke-width:17;stroke-linecap:round;stroke-linejoin:round;stroke-miterlimit:10;stroke-dasharray:none;stroke-opacity:1" id="path2856" /></g><g id="g2858" transform="translate(15,384.0381)"><path d="m 0,0 h 166.463 c 7.332,-18.118 25.083,-30.905 45.83,-30.905 H 242" style="fill:none;stroke:#000000;stroke-width:17;stroke-linecap:round;stroke-linejoin:round;stroke-miterlimit:10;stroke-dasharray:none;stroke-opacity:1" id="path2860" /></g><g id="g2862" transform="translate(438.6704,354.1592)"><path d="M 0,0 H 42.537" style="fill:none;stroke:#000000;stroke-width:17;stroke-linecap:round;stroke-linejoin:round;stroke-miterlimit:10;stroke-dasharray:none;stroke-opacity:1" id="path2864" /></g><g id="g2866" transform="translate(438.6704,414.1592)"><path d="M 0,0 H 42.537" style="fill:none;stroke:#000000;stroke-width:17;stroke-linecap:round;stroke-linejoin:round;stroke-miterlimit:10;stroke-dasharray:none;stroke-opacity:1" id="path2868" /></g><g id="g2870" transform="translate(438.6704,474.1592)"><path d="M 0,0 H 42.537" style="fill:none;stroke:#000000;stroke-width:17;stroke-linecap:round;stroke-linejoin:round;stroke-miterlimit:10;stroke-dasharray:none;stroke-opacity:1" id="path2872" /></g><g id="g2874" transform="translate(377.2583,467.0488)"><path d="M 0,0 C 0,16.426 13.316,29.742 29.742,29.742 46.167,29.742 59.483,16.426 59.483,0 v -267.139" style="fill:none;stroke:#000000;stroke-width:17;stroke-linecap:round;stroke-linejoin:round;stroke-miterlimit:10;stroke-dasharray:none;stroke-opacity:1" id="path2876" /></g><g id="g2878" transform="translate(151.9023,196.2773)"><path d="m 0,0 36.096,-14.03 v 10e-4 C 48,16.598 32.822,51.075 2.195,62.979 L -33.901,77.01 C -45.805,46.383 -30.627,11.904 0,0 Z" style="fill:none;stroke:#000000;stroke-width:17;stroke-linecap:round;stroke-linejoin:round;stroke-miterlimit:10;stroke-dasharray:none;stroke-opacity:1" id="path2880" /></g><g id="g2882" transform="translate(47.4531,85.0859)"><path d="m 0,0 c -1.604,6.714 -2.453,13.717 -2.453,20.914 0,49.626 40.374,90 90,90 18.61,0 35.918,-5.678 50.285,-15.392" style="fill:none;stroke:#000000;stroke-width:17;stroke-linecap:round;stroke-linejoin:round;stroke-miterlimit:10;stroke-dasharray:none;stroke-opacity:1" id="path2884" /></g><g id="g2886" transform="translate(113.7866,84.7871)"><path d="m 0,0 c -5.429,5.429 -8.787,12.929 -8.787,21.213 0,16.568 13.432,30 30,30 16.569,0 30,-13.432 30,-30 0,-8.136 -3.238,-15.515 -8.496,-20.919" style="fill:none;stroke:#000000;stroke-width:17;stroke-linecap:round;stroke-linejoin:round;stroke-miterlimit:10;stroke-dasharray:none;stroke-opacity:1" id="path2888" /></g><g id="g2890" transform="translate(255.7627,242.9258)"><path d="m 0,0 c -52.27,-23.469 -88.763,-76.016 -88.763,-136.926 0,-7.095 0.495,-14.077 1.453,-20.913" style="fill:none;stroke:#000000;stroke-width:17;stroke-linecap:round;stroke-linejoin:round;stroke-miterlimit:10;stroke-dasharray:none;stroke-opacity:1" id="path2892" /></g><g id="g2894" transform="translate(465.5747,85.2852)"><path d="m 0,0 c 0.939,6.772 1.425,13.688 1.425,20.715 0,61.388 -37.072,114.27 -90,137.462 v 223.538 c 0,16.568 -13.431,30 -30,30 -16.568,0 -30,-13.432 -30,-30" style="fill:none;stroke:#000000;stroke-width:17;stroke-linecap:round;stroke-linejoin:round;stroke-miterlimit:10;stroke-dasharray:none;stroke-opacity:1" id="path2896" /></g><g id="g2898" transform="translate(404.5474,85.0869)"><path d="m 0,0 c 1.604,6.713 2.453,13.716 2.453,20.913 0,49.626 -40.374,90 -90,90 v 271 c 0,16.568 -13.432,30 -30,30 -16.569,0 -30,-13.432 -30,-30 V 87.933 c -18.89,-16.928 -30.611,-41.701 -29.976,-69.143 0.137,-5.909 0.852,-11.686 2.089,-17.272" style="fill:none;stroke:#000000;stroke-width:17;stroke-linecap:round;stroke-linejoin:round;stroke-miterlimit:10;stroke-dasharray:none;stroke-opacity:1" id="path2900" /></g><g id="g2902" transform="translate(293.644,87.1709)"><path d="m 0,0 c -4.156,5.147 -6.644,11.698 -6.644,18.829 0,16.568 13.432,30 30,30 16.568,0 30,-13.432 30,-30 0,-8.135 -3.238,-15.514 -8.495,-20.918" style="fill:none;stroke:#000000;stroke-width:17;stroke-linecap:round;stroke-linejoin:round;stroke-miterlimit:10;stroke-dasharray:none;stroke-opacity:1" id="path2904" /></g><g id="g2906" transform="translate(439.9209,15)"><path d="m 0,0 h -367.842 c -31.524,0 -57.079,25.559 -57.079,70.087 h 482 C 57.079,25.559 31.524,0 0,0 Z" style="fill:none;stroke:#000000;stroke-width:17;stroke-linecap:round;stroke-linejoin:round;stroke-miterlimit:10;stroke-dasharray:none;stroke-opacity:1" id="path2908" /></g></g></g></g></svg>