<svg width="132" height="36" viewBox="0 0 132 36" fill="none" xmlns="http://www.w3.org/2000/svg">
<path d="M0 8.30769C0 3.71948 3.71948 0 8.30769 0H27.6923C32.2805 0 36 3.71948 36 8.30769V27.6923C36 32.2805 32.2805 36 27.6923 36H8.30769C3.71948 36 0 32.2805 0 27.6923V8.30769Z" fill="#E92D28"/>
<g clip-path="url(#clip0_4_312)">
<path d="M29.6399 29.1448C30.1457 29.6506 30.1457 30.441 29.6399 30.9469C29.387 31.1682 29.0708 31.2947 28.7546 31.2947C28.4385 31.2947 28.1223 31.1682 27.8694 30.9153L17.8154 20.8613L7.88784 30.9153C7.63491 31.1682 7.31874 31.2947 7.00258 31.2947C6.68642 31.2947 6.37025 31.1682 6.11732 30.9153C5.61146 30.4094 5.61146 29.619 6.11732 29.1131L16.0449 19.0591L14.3376 17.3835L14.0846 17.6364C13.2942 18.4268 12.2193 18.8694 11.0811 18.8694C9.9429 18.8694 8.86794 18.4268 8.07754 17.6364L3.84094 13.4947C3.33508 12.9888 3.33508 12.1984 3.84094 11.6925C4.34681 11.1867 5.13721 11.1867 5.64308 11.6925L9.84805 15.8659C10.1642 16.1821 10.6068 16.3718 11.0811 16.3718C11.5553 16.3718 11.9663 16.1821 12.3141 15.8659L12.5987 15.5813L7.12904 10.2066C6.62318 9.70071 6.62318 8.9103 7.12904 8.40443C7.63491 7.89857 8.42531 7.89857 8.93118 8.40443L14.3376 13.8108L14.6537 13.4947C15.3177 12.8307 15.3177 11.7242 14.6537 11.0286L10.4488 6.88685C9.9429 6.38099 9.9429 5.59058 10.4488 5.08472C10.9546 4.57886 11.745 4.57886 12.2509 5.08472L16.4243 9.25808C18.0999 10.9337 18.0999 13.6211 16.4243 15.2968L16.1081 15.613L17.7838 17.2886L28.9443 5.96998C29.1656 5.71705 29.5134 5.59058 29.8296 5.59058C30.1457 5.59058 30.4935 5.71705 30.7148 5.96998C33.5287 8.78383 33.0545 12.7359 29.5134 16.2769L25.2452 20.5451C24.7394 21.051 23.9489 21.051 23.4431 20.5451C22.9372 20.0393 22.9372 19.2488 23.4431 18.743L27.7113 14.4748C30.2722 11.9138 30.209 9.98525 29.6715 8.81545L19.5859 19.0591L29.6399 29.1448Z" fill="white"/>
</g>
<path d="M58.61 7.24C61.31 7.24 63.4 7.8 64.88 8.92C66.38 10.04 67.13 11.71 67.13 13.93C67.13 16.25 66.39 18 64.91 19.18C63.43 20.34 61.45 20.92 58.97 20.92H56.6V28H52.19V7.24H58.61ZM58.61 17.68C59.89 17.68 60.87 17.39 61.55 16.81C62.23 16.23 62.57 15.27 62.57 13.93C62.57 11.59 61.23 10.42 58.55 10.42H56.6V17.68H58.61ZM72.7088 28.48C71.4088 28.48 70.3988 28.11 69.6788 27.37C68.9588 26.61 68.5988 25.54 68.5988 24.16V5.77L72.8588 5.29V24.04C72.8588 24.74 73.1488 25.09 73.7288 25.09C74.0488 25.09 74.3288 25.03 74.5688 24.91L75.4388 27.94C74.6188 28.3 73.7088 28.48 72.7088 28.48ZM88.7293 23.59C88.7293 24.21 88.8193 24.67 88.9993 24.97C89.1793 25.25 89.4793 25.46 89.8993 25.6L88.9993 28.42C88.0593 28.34 87.2893 28.12 86.6893 27.76C86.1093 27.4 85.6593 26.84 85.3393 26.08C84.2993 27.68 82.7093 28.48 80.5693 28.48C78.9893 28.48 77.7293 28.03 76.7893 27.13C75.8693 26.21 75.4093 25.02 75.4093 23.56C75.4093 21.82 76.0393 20.49 77.2993 19.57C78.5593 18.65 80.3693 18.19 82.7293 18.19H84.5593V17.41C84.5593 16.43 84.3393 15.75 83.8993 15.37C83.4593 14.99 82.7293 14.8 81.7093 14.8C80.5893 14.8 79.1893 15.08 77.5093 15.64L76.5493 12.79C78.5293 12.01 80.4893 11.62 82.4293 11.62C84.5893 11.62 86.1793 12.09 87.1993 13.03C88.2193 13.95 88.7293 15.33 88.7293 17.17V23.59ZM81.7393 25.42C82.9393 25.42 83.8793 24.83 84.5593 23.65V20.62H83.1493C80.8493 20.62 79.6993 21.48 79.6993 23.2C79.6993 23.9 79.8693 24.45 80.2093 24.85C80.5693 25.23 81.0793 25.42 81.7393 25.42ZM101.596 27.25C101.016 27.65 100.356 27.95 99.6155 28.15C98.8955 28.37 98.1755 28.48 97.4555 28.48C95.8155 28.46 94.5755 27.99 93.7355 27.07C92.8955 26.15 92.4755 24.8 92.4755 23.02V15.1H90.1055V12.1H92.4755V8.62L96.7355 8.11V12.1H100.396L99.9755 15.1H96.7355V22.93C96.7355 23.69 96.8655 24.24 97.1255 24.58C97.3855 24.92 97.7855 25.09 98.3255 25.09C98.8655 25.09 99.4655 24.91 100.126 24.55L101.596 27.25ZM115.524 19.69C115.524 19.89 115.494 20.44 115.434 21.34H105.504C105.644 22.78 106.034 23.8 106.674 24.4C107.314 25 108.184 25.3 109.284 25.3C109.964 25.3 110.604 25.19 111.204 24.97C111.804 24.75 112.454 24.4 113.154 23.92L114.924 26.32C113.144 27.76 111.134 28.48 108.894 28.48C106.394 28.48 104.474 27.73 103.134 26.23C101.794 24.73 101.124 22.7 101.124 20.14C101.124 18.52 101.404 17.07 101.964 15.79C102.544 14.49 103.374 13.47 104.454 12.73C105.554 11.99 106.854 11.62 108.354 11.62C110.614 11.62 112.374 12.33 113.634 13.75C114.894 15.17 115.524 17.15 115.524 19.69ZM111.294 18.49C111.294 15.85 110.344 14.53 108.444 14.53C107.564 14.53 106.874 14.86 106.374 15.52C105.894 16.16 105.604 17.21 105.504 18.67H111.294V18.49ZM129.564 23.59C129.564 24.21 129.654 24.67 129.834 24.97C130.014 25.25 130.314 25.46 130.734 25.6L129.834 28.42C128.894 28.34 128.124 28.12 127.524 27.76C126.944 27.4 126.494 26.84 126.174 26.08C125.134 27.68 123.544 28.48 121.404 28.48C119.824 28.48 118.564 28.03 117.624 27.13C116.704 26.21 116.244 25.02 116.244 23.56C116.244 21.82 116.874 20.49 118.134 19.57C119.394 18.65 121.204 18.19 123.564 18.19H125.394V17.41C125.394 16.43 125.174 15.75 124.734 15.37C124.294 14.99 123.564 14.8 122.544 14.8C121.424 14.8 120.024 15.08 118.344 15.64L117.384 12.79C119.364 12.01 121.324 11.62 123.264 11.62C125.424 11.62 127.014 12.09 128.034 13.03C129.054 13.95 129.564 15.33 129.564 17.17V23.59ZM122.574 25.42C123.774 25.42 124.714 24.83 125.394 23.65V20.62H123.984C121.684 20.62 120.534 21.48 120.534 23.2C120.534 23.9 120.704 24.45 121.044 24.85C121.404 25.23 121.914 25.42 122.574 25.42Z" fill="#E92D28"/>
<defs>
<clipPath id="clip0_4_312">
<rect width="29.0769" height="29.0769" fill="white" transform="translate(3.46155 3.46155)"/>
</clipPath>
</defs>
</svg>
